<?xml version="1.0" encoding="utf-8"?>
<svg version="1.1" id="Layer_1"
xmlns="http://www.w3.org/2000/svg"
xmlns:xlink="http://www.w3.org/1999/xlink"
width="550px" height="400px"
xml:space="preserve">
<g id="PathID_9" transform="matrix(1.00498, 0, 0, 1.00498, 199.15, 171.4)" opacity="0.996094">
<path style="fill:#0790DA;fill-opacity:1" d="M37.75 -3.05L37.85 -3.35L37.75 -3.3L37.7 -3.65L38.4 -3.65L39.1 -4.35Q39.8 -3.35 39.8 -3.15Q39.8 -2.7 39.2 -2.25L37.85 -1.25L37.4 -1.4L36.85 -0.45Q35.85 -0.4 35.05 0L33.55 -0.3L33.1 -0.1L32.65 0.45L31.7 0.05L32 0.05Q32 -0.05 31.55 -0.05L31.7 0.05L31.4 0L30.7 0.45L30.15 -0.05L29.85 0.05Q29.35 -0.25 29.15 -0.25L27.3 -0.25L26.9 -0.8L26.45 -0.7L25.7 -1.15L25.05 -0.9L24.6 -1.45L23.9 -1.45L23.4 -2.05L23.1 -2.05Q22.7 -2.05 22.4 -2.45Q22.15 -2.9 21.8 -3.1L20.25 -3.95Q18.85 -4.6 18.15 -6.05L17.65 -6.05L16.75 -7.2L15.3 -8.35L13.7 -10.2L13.25 -10.3L12.3 -11.35L11.8 -11.5Q11.55 -11.3 11.1 -11.3Q10.7 -11.3 11.15 -11.5L11.15 -11.95Q11.15 -11.4 10.55 -11.4L9.75 -11.4L9 -12.7Q9.3 -13.15 9.4 -14L10 -14.2L10 -14.5L10.9 -14.75Q11.25 -15 11.75 -15Q12.05 -15 12.25 -14.9Q12.5 -14.8 12.4 -14.8L12.85 -14.9Q13.25 -14 14.7 -14Q16.25 -14 16.75 -14.2L16.75 -14.45L20.85 -14.6Q22.2 -15.3 23.85 -15.3L24.05 -15.2L24.6 -15.4L24.9 -15.8L25.65 -15.75L26.4 -16.05L27 -16.05L27.15 -16L27.15 -16.65L27.75 -16.75Q29.65 -17.25 29.65 -18.05Q29.65 -18.4 29.25 -18.8L27.7 -20.25L27.4 -20.25Q26.25 -20.95 26.05 -20.95L25.45 -20.95L24.45 -21.4L23.75 -21.4L23.15 -21.9L22.05 -21.9L21.6 -22.1L18.8 -22.3L18.5 -22.6L18.25 -22.4L17.65 -22.6L17.15 -22.4L15.65 -22.6L14.1 -22.3L13.25 -22.6L12.4 -22.5L11.7 -22.6L11.05 -22.3L10.65 -22.5L9.8 -21.9L9.3 -22Q9.1 -21.55 8.75 -21.2L9.05 -20.65L8.9 -17.65L9.25 -15.1Q8.7 -13.3 8.7 -12.95L8.35 -6.6L8.75 -2.85L8.45 -0.9L8.45 -0.45Q8.45 0.45 6.95 0.45L6.25 0.45L6.5 -1.95L6.25 -2.65L5.8 -5L6.1 -5.1Q5.5 -5.55 5.5 -6Q5.5 -6.65 6.05 -7.1L5.85 -7.3L6.1 -7.3Q5.5 -7.3 5.5 -7.85Q5.5 -8.25 6.1 -9.15Q5.75 -9.4 5.75 -10.25L5.9 -11.05L5.9 -11.55Q6.25 -12.2 6.25 -12.45Q6.25 -12.8 5.9 -13.6L6.25 -14.55L6.1 -15.45L6.4 -15.55Q6.25 -15.55 6.25 -16Q6.25 -16.45 6.6 -16.7L6.2 -16.6L5.8 -18.45L6.05 -19.4L5.8 -21.65L6.05 -21.7Q5.6 -21.95 5.4 -21.95L5.45 -22L5.35 -22L5.4 -21.95L5.05 -21.65L3.95 -21.75L3.05 -20.8Q2.2 -21.25 1.7 -21.35Q1.1 -22.15 1.1 -22.6Q1.1 -22.95 1.25 -23.3Q1.4 -23.65 1.85 -23.95L2.55 -24.45L4.15 -24.6L6.1 -24.7L6.25 -24.8L6.25 -24.7Q6.25 -26 7.9 -26L8.95 -26Q9.2 -24.9 9.4 -24.9L10.4 -25.35L11.75 -25.05L13.65 -25.35L16.35 -25.05L20 -24.95L21.8 -24.65L23.45 -24.65L23.45 -24.15Q23.45 -24.45 24.1 -24.45Q24.4 -24.45 24.8 -24.05L24.8 -23.5L25.1 -23.5L25.1 -23.85L24.8 -24.05L24.8 -24.1L27.6 -23.25L27.85 -22.75L27.95 -22.9Q28.7 -22.6 29.7 -22.55L30.05 -22.1L30.55 -22L31.9 -19.9Q32.4 -19.2 32.4 -18.6Q32.4 -17.5 31.55 -16.75Q30.75 -16 29.7 -14.8L28.9 -14.75L28.5 -14.75L28.05 -14.55L27.8 -13.95L26.25 -13.95L26 -13.75Q25.85 -13.6 25.25 -13.4L24.5 -13.2Q23.4 -13.2 22.25 -12.15L21.3 -12.65L20.6 -12.35L20.25 -12.5L19.6 -12.05L18.8 -12.35L18 -12.05L17.8 -12.35L17.1 -11.8L16.05 -11.9L15.95 -12L15.6 -12.05Q15.55 -11.95 15.75 -11.95L16.05 -11.9L17.2 -10.9L17.55 -10.3L19.5 -8.8L19.95 -7.95L20.2 -7.7Q20.45 -7.45 20.85 -6.45L22.05 -6.45L23.65 -4.8L24.4 -4.45L25.45 -3.8L26.45 -3.5L27.85 -2.95L28.5 -3.05L28.55 -2.85L28.8 -2.95L29.15 -2.6L30 -2.75L30.05 -2.25L30.25 -2.6L30.95 -2.4L32.65 -2.6L33.3 -2.4L35.65 -2.85L37.75 -3.3L37.75 -3.05" />
</g>
<g id="PathID_10" transform="matrix(1.00498, 0, 0, 1.00498, 199.15, 171.4)" opacity="0.996094">
</g>
<g id="PathID_11" transform="matrix(1.00498, 0, 0, 1.00498, 238.9, 171.4)" opacity="0.996094">
<path style="fill:#0790DA;fill-opacity:1" d="M27.45 -23.25L27.8 -23.25L27.7 -23.35L28.15 -23.5Q28.45 -23.3 28.75 -22.8L29.45 -22.45L29.85 -21.85L30.7 -21.5L32.45 -18.6L33.1 -17.1L33.75 -15.35Q34 -14.6 34 -14.3L34 -13.9L33.55 -12.75L33.4 -11.15L32.9 -10.65L32.45 -9.25Q32.35 -8.8 32.2 -8.55Q32.1 -8.3 31.65 -8.1L31.2 -7.95L28.25 -5.55L27.45 -5.2L25.75 -4.35L25.75 -4.65L24.5 -3.1L23.55 -2.7L21.15 -1.45Q20.55 -1.7 20.2 -1.7L20 -1.5Q19.85 -1.3 19.35 -1.15L19.05 -1.25L18.15 -0.45L17.8 -0.7L17.75 -0.4L16.85 -0.4L16.35 0L14.65 -0.05L12.15 0.35L11.85 0.3L11 0.4L9.9 0.25L9.7 0.05L7.7 -0.3L6.7 -0.8L5.9 -0.8L5.9 -1.75L5.5 -1.45L4.95 -2.15Q4.8 -2.35 4.6 -2.45L3.65 -2.9Q3.2 -4.25 3.15 -5.6L2.9 -5.95L2.8 -8.2L3.5 -10.35L3.4 -11.55L3.85 -11.9L3.5 -12.8L4.35 -13.55L4.35 -14.15L4.65 -14.8L4.65 -15.35L5 -15.8L4.85 -16.2L5.2 -16.5L6.2 -18.85L8.3 -22.1Q8.7 -22.25 8.85 -22.6Q9.05 -22.95 9.8 -23.45L9.7 -24.15L10.3 -24.15Q11 -25 11.9 -25.3L12.1 -24.85Q12.1 -25.75 13.4 -25.9L15.8 -26.2L17.3 -26L18.5 -26.1L19.65 -26.1L20.35 -26Q20.8 -26 21.4 -26.4L21.95 -26.15L22.7 -26.2Q22.75 -25.75 22.95 -25.75Q23.2 -25.5 24.05 -25.4L24.45 -25.05L24.95 -24.95L26 -24.95L27.7 -23.35L27.45 -23.25M13.05 -2.15L13.2 -2.15L13.2 -2.45L13.15 -2.45L13.25 -2.7L14.4 -2.85L16.15 -2.6Q16.4 -3.1 17.1 -3.1L17.15 -3.05Q18.2 -3.75 18.85 -3.75L18.9 -3.75L19.8 -4.3Q20.1 -4.45 20.9 -4.5L21.55 -5.1Q23.4 -5.15 23.55 -5.25L24 -5.65Q24.25 -5.95 24.9 -6.05L25.3 -7.1L25.45 -7.05L25.45 -7.3Q26.15 -7.5 26.65 -8.05L27.05 -7.9L27.15 -8.25L28 -8.9L29.4 -10.45L30.15 -10.7L30.5 -11.5L31.05 -11.85L30.9 -12.6L31.25 -13.4L31.05 -14.9L31.35 -15.3L30.9 -16.4L30.95 -16.85L30.85 -17.1Q30.8 -17.3 29.9 -17.85L29.55 -18.8L29.2 -18.95L29.05 -19.6L27.7 -21L26.75 -21.9L26.35 -21.75L24.35 -23Q24.2 -23.1 23.4 -23.2Q22.6 -23.35 22.9 -23.6L22.2 -23.55L21.6 -23.65L21.3 -23.45L20.5 -23.75L20.05 -23.45L19.05 -23.7L18.75 -23.55L18.2 -23.45Q17.7 -23.45 17.7 -23.6Q17.7 -23.4 17.35 -23.05Q17.05 -22.7 16.1 -22.3L15.45 -22.5L14.8 -22L13.9 -22.1L13.75 -22.05L13.6 -21.9L13.3 -21.6L12.85 -21.25L12.3 -20.9L11.7 -20.5Q11.55 -20.4 11.15 -19.75L11.2 -18.85L10 -18.3L9.65 -17.9Q9.25 -17.05 8.8 -16.6L8.8 -15.85Q8.1 -15.6 8.1 -15.45L7.55 -13.8L6.8 -13.3Q6.6 -10.35 6.25 -9.85L5.75 -9L5.55 -8.15Q5.5 -7.7 5.25 -6.95L5.5 -6.45L5.65 -5.55L6.1 -5L6.3 -4.45L6.35 -4.05Q7.1 -3.2 8.35 -2.75Q9.65 -2.35 9.85 -2.4L11.65 -2.85L12.05 -2.45L13.15 -2.45L13.05 -2.15" />
</g>
<g id="PathID_12" transform="matrix(1.00498, 0, 0, 1.00498, 238.9, 171.4)" opacity="0.996094">
</g>
<g id="PathID_13" transform="matrix(1.00498, 0, 0, 1.00498, 276.7, 171.4)" opacity="0.996094">
<path style="fill:#0790DA;fill-opacity:1" d="M6.1 -3.95Q6.1 -4.3 6.3 -4.3L6 -4.25L5.85 -4.8Q5.75 -4.95 5.75 -5.25Q5.75 -5.55 5.85 -5.75Q5.95 -6 5.95 -5.9L5.8 -8.45L6.05 -9.05L6.05 -10.2L6.4 -10.9L5.8 -12L6.4 -13.4L6.1 -16.75L6.25 -17.95L6.25 -18.85L5.8 -20L5.8 -21.75L5.25 -22.65L5.25 -22.85L4.5 -22.95L3.5 -22.55L1.5 -22.4Q1 -23 0.95 -23.5L0.7 -25.1Q1.8 -26 2.5 -26L2.9 -25.95Q2.75 -25.95 2.95 -26.15Q3.95 -26.4 5.15 -26.4Q5.75 -26 6.2 -26L7.05 -26.1Q7.25 -25.8 7.05 -25.8L7.95 -26.1L8.6 -25.8L9.25 -26L11 -25.6L11.75 -25.05L13.05 -25.25L13.45 -24.55L13.9 -24.4L14.75 -23.9L15.3 -23.8L15.95 -23.5L16.25 -23.55Q16.95 -23.55 17.4 -23.1Q18.4 -23.05 19.65 -21.6L20.1 -21.6Q20.75 -20.95 21.7 -20.75L22.95 -19.8L24.25 -18.6L24.5 -18.4L24.9 -18.65L25.65 -18.3L25.8 -17.45Q26.95 -16.4 27.7 -15.5Q28.45 -14.6 28.5 -14.25Q28.6 -13.95 29.25 -13.6L29.25 -12.7Q29.25 -12.35 29.7 -11.9Q29.7 -11.4 30.05 -11.05Q30.4 -10.7 30.4 -10.35L30.4 -10.2L30.15 -9.7L30.1 -9.35L30.05 -8.85L29.05 -7.45L28.75 -6.85L27.95 -6.45L27.4 -5.9Q26.1 -5.5 25.45 -5L24.85 -5L24.7 -4.95L24.5 -4.5L23.65 -4.5L23.55 -4.3L22.85 -4.35Q23.1 -4.35 22.85 -4.05Q22.6 -3.8 21.9 -3.75L21.6 -3.9Q21.4 -3.9 20.65 -3.55L19.75 -3.75L19.1 -3.35L18.75 -3.4L18.15 -3.25Q17.65 -3.1 17.25 -3.1L16.9 -3.1L16 -2.85Q15.3 -2.65 14.7 -2.65Q14.2 -2.65 14 -2.75L13.2 -2.5L12.5 -2.85L12 -2.5L11.9 -2.65L11.45 -1.95L10.75 -2.35L10 -2.05L9.85 -2.4Q10 -2.3 9.65 -2.25L9.55 -1.55L8.9 -0.7L8.75 -0.3Q8.65 0 7.5 1.25L7.05 1.15L6.5 1.15L6.6 -0.25L6.55 -1.2L6 -1.6Q5.8 -1.75 5.95 -1.75L4.95 -1.25L3.85 -1.25L3.2 -1.7L3.05 -2.6L3.5 -3.1L3.55 -3.65L5.6 -4.15Q5.75 -4.25 6 -4.25L6.1 -3.95M9 -22.95L8.8 -22.8Q9 -22.8 9.15 -22.7L9.15 -22.65L8.85 -21.65L8.8 -21.5Q8.8 -21.3 9.25 -20.8L8.75 -19.75Q8.75 -19.9 9 -19.35Q9.25 -18.8 9.25 -18.35L9.15 -17.85L9.1 -17.5L9.35 -16.45L9 -16.3L9.15 -15.55L9.15 -13.75L9.35 -13.3L8.8 -12.5L9.15 -12.2L8.7 -10.8L8.9 -9.6L8.4 -8.55L8.9 -7.65L8.8 -6.6L9 -6L8.7 -5.25L9 -4.55L11.7 -4.9L11.85 -5Q12.1 -5.15 12.4 -5.15L13.3 -5L14.3 -4.9Q15.3 -4.9 16.45 -5.7L17.7 -5.75L18.9 -5.7Q19.45 -5.7 19.9 -6.1Q20.45 -6.15 20.9 -6.4Q21.4 -6.7 21.7 -6.7Q22.2 -6.7 22.4 -6.5L22.75 -6.8L23.45 -6.85L23.6 -7.4L24.3 -7.25L24.75 -7.5L25 -7.5L25.45 -8.05L25.85 -8.05L27.45 -9.25L27.5 -10L27.35 -11.2L25.55 -13.65L25.15 -13.65L24.55 -15L24.15 -15.05L23.2 -15.75L23 -16.45Q22.75 -16.75 21.25 -17.2L20.85 -18L17.1 -20.25L16.55 -20.2Q16 -20.2 15.3 -20.6L15.05 -20.85L14.45 -20.75L14.1 -21.35L13.55 -21.3Q13.4 -21.4 12.9 -21.45Q12.45 -21.55 12.2 -21.75L11.5 -21.65Q11.5 -22 11.4 -22Q10.45 -22.7 9.15 -22.7L9 -22.95" />
</g>
<g id="PathID_14" transform="matrix(1.00498, 0, 0, 1.00498, 276.7, 171.4)" opacity="0.996094">
</g>
<g id="PathID_15" transform="matrix(1.00498, 0, 0, 1.00498, 310.7, 171.4)" opacity="0.996094">
<path style="fill:#0790DA;fill-opacity:1" d="M6.1 -8.95L6.15 -9L6.05 -9L5.7 -9.7L6.1 -10.95L5.85 -12.4L6.2 -14L5.9 -15.1L6.25 -17.6L6.2 -19.45L6.45 -21.05L6.2 -21.55L6.25 -24.45L6.8 -24.5Q6.15 -24.65 6.15 -25.4Q6.15 -25.9 6.8 -26.4L7.65 -26.2L8 -26.55Q9.1 -25.9 9.1 -25.3Q9.1 -24.85 8.85 -25.05L9.5 -25.05L9.65 -23.65L10.25 -23.15L10.35 -22.45L11.1 -21.95L11.4 -20.75Q11.55 -20.3 11.7 -20.15L13.6 -18.75L13.6 -18.45Q13.6 -18.25 13.95 -17.9L15.1 -17.1L16.4 -15.6L20.1 -12.5L20.55 -12.5Q21.35 -11.85 21.45 -11.55Q21.6 -11.25 21.45 -11.3L23.2 -10.75L24.45 -9.7L25.15 -9.45L26.55 -8.65L28 -8.25Q29.15 -7.05 29.75 -7.05L30.5 -7.25L30.25 -7.25L30.3 -8.25L31 -9.55L30.65 -9.8L30.8 -12.55L31.35 -13.35L31.3 -13.7L30.8 -14.7L31.35 -16.8L31.1 -18.6L31.6 -22L31 -22.7L31.7 -24.75L31.45 -25.1L31.8 -25.7L31.7 -26.2L33.25 -26.8L33.45 -26.4L34.35 -26.55L34.2 -25.15Q34.2 -24.75 34.45 -24.35Q34.7 -24 34.7 -23.7L34.35 -22.85L35 -21.65L34.35 -20.55L34.35 -20.35L34.7 -20.45Q34.7 -19.55 34.3 -18.6L34.05 -18.05L34.05 -15.5L33.55 -14.35L33.65 -13.7L33.2 -11.45L33.4 -10.85L33 -9L33.1 -8.15L32.75 -6.9L33.1 -5.6L32.3 -4.3L32.5 -3.65L32.05 -2.85L32.3 -2.45L32.5 -0.1L32.85 0.95Q32.35 1.35 32.1 1.9L30.8 1.7L30.6 -0.8L30.25 -0.9L30.1 -2.1L30.1 -3.05L30.1 -4.05Q30.1 -4.45 30 -4.6L29.8 -5.05L28.9 -5.2L28.65 -5.8L28.4 -5.5L27.75 -6.05L27 -5.8L26 -6.6L25.6 -6.5L24.35 -6.75L23.85 -7.3L23.6 -7.2L20.25 -9.3L19.95 -9.7L18.9 -10.15L18.2 -11L17.65 -11.3L16.85 -12.1L14.55 -13.1L13 -15.1L12.3 -15.15L11.9 -15.8Q11.2 -16.05 10.1 -18.05L10.35 -18.05Q10 -17.65 9.7 -18.3L9.6 -18.3Q9.45 -18.3 9.35 -18.15L9.1 -17.5L8.65 -14.45L9.1 -12.9L8.4 -10.25L8.7 -8.6L8.7 -8.4Q8.7 -7.65 8.35 -7.25L8.05 -6.9Q8.05 -7.1 8.7 -6.85L8.4 -5.45L8.4 -4.2L8.15 -2.95L8.4 -2.3L8.15 -1.8Q8.05 -0.3 7.25 0.9L6.6 0.9Q5.5 0.9 5.5 -0.55L5.5 -0.85L6.1 -2.75L5.85 -3.55L6.2 -4.45L5.85 -4.9L6.25 -5.75L5.7 -6.45L5.8 -7.5L5.7 -9.1L6.05 -9L6.1 -8.95" />
</g>
<g id="PathID_16" transform="matrix(1.00498, 0, 0, 1.00498, 310.7, 171.4)" opacity="0.996094">
</g>
<g id="PathID_17" transform="matrix(1.00498, 0, 0, 1.00498, 351.5, 171.4)" opacity="0.996094">
<path style="fill:#0790DA;fill-opacity:1" d="M29.65 -26.3Q29.5 -25.7 29.1 -25.2L28.5 -25.2L28 -25L27.15 -25.2L26.45 -25.15Q25.55 -25.15 25.45 -25.3L25.4 -25.5L24.75 -25.2L24.1 -25.4Q23.9 -25.4 23.2 -25.15Q22.55 -24.9 22.1 -24.9L21.35 -24.95L20.75 -25Q20.85 -25 20.7 -24.7Q19.8 -25 19.55 -25Q19.05 -25 18.2 -24.35L17.6 -24.65L17.25 -24.35L16.05 -24.75L15.35 -24.25L14.35 -24.25L13.15 -23.95L11.75 -23.45L11.35 -23.8L10.6 -23.05L9.85 -23.1L9.4 -22.35L9.65 -21.1Q9.15 -20.95 9.15 -20.15L9.2 -19.8L9.15 -18.85L9.3 -18.4L8.95 -18.1L9.15 -17.95Q8.8 -17.05 8.8 -16.55Q8.8 -15.95 9.55 -15.95L10.15 -16.05Q10.6 -16.15 11.05 -16.05L11.75 -15.95L12.6 -16.25L13.45 -16L13.9 -16.1L14.4 -16.05L15.2 -16.25L15.7 -16.1L15.75 -16.1Q15.9 -16.1 16.65 -16.45Q17.2 -16.2 17.7 -16.25L18.45 -16.4L19.2 -16.55L20.35 -16.35Q20.15 -16.35 20.3 -16.65L22.15 -16.4L22.65 -16.45L24.3 -16.35L24.85 -16.45Q24.95 -16.85 25.9 -16.85L27 -16.7L27.55 -16.8L28.15 -16.55L29.35 -16.7L29.1 -15.2Q27.85 -14.75 27.35 -14.75L26.7 -14.85L26.2 -15L24.9 -14.35L23.75 -14.45L23.05 -14.2L22.65 -14.3L21.85 -13.8L21.15 -13.95L19.2 -13.9L18.7 -13.65L18 -13.8L17.65 -13.5L17 -13.7L16.6 -13.35L15.55 -13.8L14.95 -13.35L13.85 -13.55L13.65 -13.6Q13.35 -13.6 12.7 -13.4L12.15 -13.2L10.1 -13L9.85 -13.25Q9.75 -13.05 8.7 -12.85L8.45 -12.3L8.9 -9.65L8.65 -9.35L8.95 -8.7L8.9 -7.85L9 -7.75Q9.15 -7.55 9.35 -6.2L9.8 -5.6L9.55 -5.15L9.75 -5.3L10.85 -3.7Q12.5 -2.4 13.75 -2.4L14.7 -2.25L15.4 -2.4L15.65 -2.75L16.35 -2.75L17 -2.75L17.95 -3.35Q18.5 -3.35 18.6 -3.45L19.3 -3.65Q19.55 -3.7 19.65 -3.8L20.35 -4.35Q20.6 -4.75 21.25 -5.25L21.9 -5.3L23.1 -6.4Q24.45 -6.8 24.85 -8.05L25.15 -7.85L25.25 -8.6L25.9 -8.65L26 -9.45L26.6 -9.45Q27.45 -9.45 27.8 -8.3L25.85 -5.7L25.25 -5.55Q24.45 -4.3 24 -4.05L22.8 -3.2L21.85 -2.35L21.5 -2.4L21.05 -1.8L18.75 -0.9L18.05 -0.05L17.3 -0.3L17.05 0.05L16.75 0L16.35 0.35L14.9 0.05L13.2 0.85L11.8 0.35L9.7 -0.75Q8.7 -1.25 7.95 -2.3Q7.2 -3.35 6.45 -5.5Q5.7 -7.7 5.7 -8.1L5.85 -8.7L5.5 -9.75L5.85 -10.25L5.4 -12.6L4.65 -13.55Q4.55 -13.7 4.55 -14.3Q4.55 -15.5 4.95 -15.7Q5.4 -15.9 5.4 -15.6L5.4 -15.95Q5.4 -16.7 5.95 -16.8L6 -17L5.85 -17.25L5.85 -18.7L5.7 -19.4L6.25 -21.05Q6.55 -22.05 6.65 -22.15L6.25 -22.6L5.4 -22.5L5.3 -22.5Q4.85 -22.5 4.45 -22.8Q4.1 -23.15 4.1 -23.65Q4.1 -24.3 4.95 -25.3Q5.15 -25.35 5.25 -25.55Q6.4 -26 6.6 -26Q7.05 -26 6.85 -25.75Q6.75 -26.1 7.35 -26.1Q7.6 -26.1 7.6 -26L7.45 -26.9L9.95 -26.75L10.1 -26.2Q10.55 -26.8 11.55 -26.8L11.85 -26.75L12.9 -27Q13.2 -27 14.5 -27.35L14.5 -27Q14.2 -27.35 15.05 -27.35L16.05 -27.3L16.2 -27.35L21.05 -27.8L21.85 -27.35L22.55 -27.95Q22.95 -27.55 22.8 -27.55L23.35 -27.7L23.75 -27.35L24.1 -27.7L25.15 -27.35L25.8 -27.45L26.15 -27.25L27.7 -27.35L28.05 -27.2Q29.5 -26.85 29.65 -26.3" />
</g>
<g id="PathID_18" transform="matrix(1.00498, 0, 0, 1.00498, 351.5, 171.4)" opacity="0.996094">
</g>
<g id="PathID_19" transform="matrix(1.00498, 0, 0, 1.00498, 384.2, 171.4)" opacity="0.996094">
<path style="fill:#0790DA;fill-opacity:1" d="M18.35 -15.7L18.35 -15.55Q18.35 -15.75 18.65 -15.75L18.4 -15.75Q18.4 -16.2 19 -16.6L19.05 -16.7Q19.1 -17.5 20.25 -18.05L20.55 -18.45Q20.55 -19.45 22.05 -19.55L22.1 -19.5L22.05 -20.1Q23.05 -20.35 23.25 -20.55L24.05 -21.5Q24.55 -22.45 25.3 -23.1Q26.1 -23.8 26.4 -23.8L26.25 -23.8L26.45 -24.1Q26.75 -24.6 27.4 -25L27.7 -26L28.5 -25.9L28.45 -26.15L28.45 -26.2Q28.45 -26.8 29.2 -26.9L29.05 -27.1L30.05 -27.55L30.35 -27.55L30.65 -28.45L32.1 -28.3L32.85 -28.45L33.3 -27.6L33.8 -27.15L33.4 -26.5L33.4 -25.5Q32.35 -25.3 32 -24.85Q31.65 -24.4 31.45 -24.35Q31.35 -23.75 30.7 -23.75L29.7 -22.8L29.05 -21.75L28.65 -21.75Q28.25 -21.05 27.8 -20.7Q27 -20.35 26.95 -20.25L25.8 -18.95L25 -18.35Q24.55 -18 23.95 -17.8L23.5 -16.9L22.65 -16.4Q22.4 -16.25 21.8 -15.6L21.3 -14.3L19.5 -12.1Q18.8 -11.05 18.45 -10.35L18.75 -9.8L18.45 -8.95L18.7 -8L18.35 -6.85L18.5 -5.8L18.9 -5.25Q18.3 -4.25 18.3 -3.55Q18.3 -2.7 18.1 -2.35Q18.3 -1.05 18.2 -0.6L17.9 1.65L17.95 2.8L17.75 3.3L18.1 5.15L17.65 5.85L17.95 6.8L17.65 7.25Q18.25 8.25 18 9.05L17.75 9.95L18.05 11.35L17.55 12.5L18.1 13.25L17.95 15.25Q17.85 16.45 16.35 16.75L15.95 14.65L15.55 13.1L15.45 11.95L15.05 11.6L15.35 10.8L15.05 10L15.35 8.4L15 6.8L15.1 5.4L15.05 5.1L15.1 3.95L14.95 1.55L15.1 0.45L15 -0.85L15.35 -3.05L14.9 -3.9L15.05 -5.05Q15.05 -6.1 14.75 -7Q15.1 -7.85 15.1 -8.3Q15.1 -8.6 14.45 -11Q13.85 -11.45 13.5 -12.05Q13.2 -12.1 12.8 -12.55L11.3 -14.4L10.5 -14.85L9.8 -16.1L7.9 -18.05L7.55 -18.75L6.65 -19.9L5.3 -21L5.3 -21.55L4.9 -21.85Q4.45 -22.2 4.25 -22.55L3.8 -23.4L3.2 -23.7Q1.45 -24.6 1.45 -26.75L1.55 -27.7L2.05 -27.7Q2.1 -28.05 2.95 -28.05Q3.45 -28.05 4.65 -27.7L4.9 -26.85L5.8 -26.45L6.6 -25.1L7.85 -24.2L7.9 -22.75Q7.9 -22.95 8.45 -22.85L9.05 -21.9L9.8 -21.3L12.35 -17.45L12.25 -17.3L12.6 -17.2L13.4 -16.15L15.8 -13.8Q16.15 -13.5 16.35 -13.1Q16.6 -12.75 16.45 -12.75Q16.25 -12.75 16.55 -13.05Q16.85 -13.4 17.45 -14.5Q17.65 -15.75 18.3 -15.75L18.4 -15.75L18.35 -15.7" />
</g>
<g id="PathID_20" transform="matrix(1.00498, 0, 0, 1.00498, 384.2, 171.4)" opacity="0.996094">
</g>
<g id="PathID_21" transform="matrix(1.00498, 0, 0, 1.00498, 305.7, 235.75)" opacity="0.996094">
<path style="fill:#0790DA;fill-opacity:1" d="M28.35 -18.25L28 -17.4Q27.8 -16.95 27.45 -16.6L26.85 -16L26.85 -15.45Q26.05 -15.3 25.7 -14.85Q25.4 -14.4 25.2 -14.4Q24.8 -13.65 23.05 -13.25Q22.4 -12.35 20.9 -12.35L21.2 -12.35L21.2 -12.05L19.85 -12.05L19.3 -11.6L19.05 -11.55Q19.05 -11.15 18.35 -11.15L17.9 -10.75L16.75 -10.75L16.1 -10.15L14 -9.75L13.7 -9.5L12.75 -9.6L12.1 -8.75Q11.5 -8.95 10.6 -9L10.25 -8.8L9.55 -8.55Q9 -8.2 8.65 -8.1L8.45 -7.6L8.95 -6.65L8.7 -5.4L9.05 -3.8L8.75 -3.7L9.15 -3.4L9.15 -2.3L9.35 -1.8L9.35 -1.3L10.15 -1.4Q10.75 -0.9 10.75 -0.4Q10.75 0.9 9.15 0.9L8.95 0.9L7.8 1.2L6.9 -0.35L5.95 -2.4L5.95 -4.45L5.45 -5.7L5.8 -6.15L5.6 -6.95L5.7 -7.55L5.55 -7.7L3.5 -8.05L2.75 -9.7L5.25 -9.9L5 -9.55Q5.3 -10.1 5.65 -10.15L5.65 -10.95L5.95 -11.55L6.1 -14.6L6.4 -14.95L6.3 -17.15L6.5 -18.45L6.6 -21.25L7 -22.2L7.3 -22.4L7.2 -22.85Q7.2 -23.9 8.3 -23.9Q10.55 -23.9 10.55 -22.25Q10.55 -21.85 10.15 -21.05Q9.75 -20.25 9.75 -19.95Q9.75 -19.65 10.3 -18.5L9.85 -17.95L9.8 -16.6L9.15 -16L9.35 -15.1L8.95 -13.95L9.15 -12.85L8.95 -12L9.05 -11.25L8.7 -10.7L8.75 -10.35L9.95 -11.1L10.95 -11.1Q11.65 -11.8 12.7 -11.8L13.1 -12.15L13.95 -12.05Q14.75 -12.05 15.75 -12.85L16.55 -12.9L17.2 -13.5L17.75 -13.5L17.85 -13.65L20.75 -14.45L21.05 -14.55Q21.3 -14.75 21.4 -15.3L22.35 -15.25Q22.65 -15.25 22.8 -16.05Q23.65 -16.15 23.7 -16.35Q23.75 -16.55 24.55 -16.75L24.6 -17.1L24.9 -17.35L25.1 -18.15Q24.7 -19.1 24.2 -19.75L23.7 -19.85L22.8 -20.7L20.95 -21.45Q19.25 -22.75 17.95 -22.9L17.95 -22.6L16.4 -23.15L15.25 -23.1L14.55 -23.6L13.75 -23.6L13.05 -23.95L12.45 -23.95Q11.7 -23.95 11.35 -24.4L9.75 -24.65L8.1 -24.05L7 -24.8L6.3 -24.35L5.65 -24.75L5.25 -24.55L5.25 -24.25L4.4 -24.25L3.45 -23.75L2.65 -23.65L1.45 -23.15Q0.45 -24.3 0.25 -25.6L0.8 -26.35L0.8 -26.65Q1.1 -27.2 1.95 -27.25Q2.8 -27.35 3.45 -27.7L4.25 -27.55L4.6 -27.8L5.2 -27.55L5.65 -27.7Q6.3 -27.7 6.45 -27.35L8.3 -27.35L10.05 -27.3L11.95 -27Q12.1 -26.75 12.5 -26.6L12.9 -26.5L12.5 -26.9L12.95 -26.9Q14 -26.9 14 -26.2Q14 -25.85 13.95 -26.5L14.2 -26.5Q15.6 -26.1 16.75 -26.05L16.9 -25.8L18.1 -25.8L19.1 -25.1L20.2 -24.95L20.4 -24.6Q22 -24.6 22.4 -23.6L23.35 -23.9L23.35 -23.15Q23.55 -23.15 24.25 -22.55L25 -22.55L25.55 -21.7L27.3 -20.55L27.3 -19.85L28.35 -18.25" />
</g>
<g id="PathID_22" transform="matrix(1.00498, 0, 0, 1.00498, 305.7, 235.75)" opacity="0.996094">
</g>
<g id="PathID_23" transform="matrix(1.00498, 0, 0, 1.00498, 335.85, 235.75)" opacity="0.996094">
<path style="fill:#0790DA;fill-opacity:1" d="M29.65 -26.3Q29.5 -25.7 29.1 -25.2L28.5 -25.2L28 -25L27.15 -25.2L26.45 -25.15Q25.55 -25.15 25.45 -25.3L25.4 -25.5L24.75 -25.2L24.1 -25.4Q23.9 -25.4 23.2 -25.15Q22.55 -24.9 22.1 -24.9L21.35 -24.95L20.75 -25Q20.85 -25 20.7 -24.7Q19.8 -25 19.55 -25Q19.05 -25 18.2 -24.35L17.6 -24.65L17.25 -24.35L16.05 -24.75L15.35 -24.25L14.35 -24.25L13.15 -23.95L11.75 -23.45L11.35 -23.8L10.6 -23.05L9.85 -23.1L9.4 -22.35L9.65 -21.1Q9.15 -20.95 9.15 -20.15L9.2 -19.8L9.15 -18.85L9.3 -18.4L8.95 -18.1L9.15 -17.95Q8.8 -17.05 8.8 -16.55Q8.8 -15.95 9.55 -15.95L10.15 -16.05Q10.6 -16.15 11.05 -16.05L11.75 -15.95L12.6 -16.25L13.45 -16L13.9 -16.1L14.4 -16.05L15.2 -16.25L15.7 -16.1L15.75 -16.1Q15.9 -16.1 16.65 -16.45Q17.2 -16.2 17.7 -16.25L18.45 -16.4L19.2 -16.55L20.35 -16.35Q20.15 -16.35 20.3 -16.65L22.15 -16.4L22.65 -16.45L24.3 -16.35L24.85 -16.45Q24.95 -16.85 25.9 -16.85L27 -16.7L27.55 -16.8L28.15 -16.55L29.35 -16.7L29.1 -15.2Q27.85 -14.75 27.35 -14.75L26.7 -14.85L26.2 -15L24.9 -14.35L23.75 -14.45L23.05 -14.2L22.65 -14.3L21.85 -13.8L21.15 -13.95L19.2 -13.9L18.7 -13.65L18 -13.8L17.65 -13.5L17 -13.7L16.6 -13.35L15.55 -13.8L14.95 -13.35L13.85 -13.55L13.65 -13.6Q13.35 -13.6 12.7 -13.4L12.15 -13.2L10.1 -13L9.85 -13.25Q9.75 -13.05 8.7 -12.85L8.45 -12.3L8.9 -9.65L8.65 -9.35L8.95 -8.7L8.9 -7.85L9 -7.75Q9.15 -7.55 9.35 -6.2L9.8 -5.6L9.55 -5.15L9.75 -5.3L10.85 -3.7Q12.5 -2.4 13.75 -2.4L14.7 -2.25L15.4 -2.4L15.65 -2.75L16.35 -2.75L17 -2.75L17.95 -3.35Q18.5 -3.35 18.6 -3.45L19.3 -3.65Q19.55 -3.7 19.65 -3.8L20.35 -4.35Q20.6 -4.75 21.25 -5.25L21.9 -5.3L23.1 -6.4Q24.45 -6.8 24.85 -8.05L25.15 -7.85L25.25 -8.6L25.9 -8.65L26 -9.45L26.6 -9.45Q27.45 -9.45 27.8 -8.3L25.85 -5.7L25.25 -5.55Q24.45 -4.3 24 -4.05L22.8 -3.2L21.85 -2.35L21.5 -2.4L21.05 -1.8L18.75 -0.9L18.05 -0.05L17.3 -0.3L17.05 0.05L16.75 0L16.35 0.35L14.9 0.05L13.2 0.85L11.8 0.35L9.7 -0.75Q8.7 -1.25 7.95 -2.3Q7.2 -3.35 6.45 -5.5Q5.7 -7.7 5.7 -8.1L5.85 -8.7L5.5 -9.75L5.85 -10.25L5.4 -12.6L4.65 -13.55Q4.55 -13.7 4.55 -14.3Q4.55 -15.5 4.95 -15.7Q5.4 -15.9 5.4 -15.6L5.4 -15.95Q5.4 -16.7 5.95 -16.8L6 -17L5.85 -17.25L5.85 -18.7L5.7 -19.4L6.25 -21.05Q6.55 -22.05 6.65 -22.15L6.25 -22.6L5.4 -22.5L5.3 -22.5Q4.85 -22.5 4.45 -22.8Q4.1 -23.15 4.1 -23.65Q4.1 -24.3 4.95 -25.3Q5.15 -25.35 5.25 -25.55Q6.4 -26 6.6 -26Q7.05 -26 6.85 -25.75Q6.75 -26.1 7.35 -26.1Q7.6 -26.1 7.6 -26L7.45 -26.9L9.95 -26.75L10.1 -26.2Q10.55 -26.8 11.55 -26.8L11.85 -26.75L12.9 -27Q13.2 -27 14.5 -27.35L14.5 -27Q14.2 -27.35 15.05 -27.35L16.05 -27.3L16.2 -27.35L21.05 -27.8L21.85 -27.35L22.55 -27.95Q22.95 -27.55 22.8 -27.55L23.35 -27.7L23.75 -27.35L24.1 -27.7L25.15 -27.35L25.8 -27.45L26.15 -27.25L27.7 -27.35L28.05 -27.2Q29.5 -26.85 29.65 -26.3" />
</g>
<g id="PathID_24" transform="matrix(1.00498, 0, 0, 1.00498, 335.85, 235.75)" opacity="0.996094">
</g>
<g id="PathID_25" transform="matrix(1.00498, 0, 0, 1.00498, 368.55, 235.75)" opacity="0.996094">
<path style="fill:#0790DA;fill-opacity:1" d="M37.75 -3.05L37.85 -3.35L37.75 -3.3L37.7 -3.65L38.4 -3.65L39.1 -4.35Q39.8 -3.35 39.8 -3.15Q39.8 -2.7 39.2 -2.25L37.85 -1.25L37.4 -1.4L36.85 -0.45Q35.85 -0.4 35.05 0L33.55 -0.3L33.1 -0.1L32.65 0.45L31.7 0.05L32 0.05Q32 -0.05 31.55 -0.05L31.7 0.05L31.4 0L30.7 0.45L30.15 -0.05L29.85 0.05Q29.35 -0.25 29.15 -0.25L27.3 -0.25L26.9 -0.8L26.45 -0.7L25.7 -1.15L25.05 -0.9L24.6 -1.45L23.9 -1.45L23.4 -2.05L23.1 -2.05Q22.7 -2.05 22.4 -2.45Q22.15 -2.9 21.8 -3.1L20.25 -3.95Q18.85 -4.6 18.15 -6.05L17.65 -6.05L16.75 -7.2L15.3 -8.35L13.7 -10.2L13.25 -10.3L12.3 -11.35L11.8 -11.5Q11.55 -11.3 11.1 -11.3Q10.7 -11.3 11.15 -11.5L11.15 -11.95Q11.15 -11.4 10.55 -11.4L9.75 -11.4L9 -12.7Q9.3 -13.15 9.4 -14L10 -14.2L10 -14.5L10.9 -14.75Q11.25 -15 11.75 -15Q12.05 -15 12.25 -14.9Q12.5 -14.8 12.4 -14.8L12.85 -14.9Q13.25 -14 14.7 -14Q16.25 -14 16.75 -14.2L16.75 -14.45L20.85 -14.6Q22.2 -15.3 23.85 -15.3L24.05 -15.2L24.6 -15.4L24.9 -15.8L25.65 -15.75L26.4 -16.05L27 -16.05L27.15 -16L27.15 -16.65L27.75 -16.75Q29.65 -17.25 29.65 -18.05Q29.65 -18.4 29.25 -18.8L27.7 -20.25L27.4 -20.25Q26.25 -20.95 26.05 -20.95L25.45 -20.95L24.45 -21.4L23.75 -21.4L23.15 -21.9L22.05 -21.9L21.6 -22.1L18.8 -22.3L18.5 -22.6L18.25 -22.4L17.65 -22.6L17.15 -22.4L15.65 -22.6L14.1 -22.3L13.25 -22.6L12.4 -22.5L11.7 -22.6L11.05 -22.3L10.65 -22.5L9.8 -21.9L9.3 -22Q9.1 -21.55 8.75 -21.2L9.05 -20.65L8.9 -17.65L9.25 -15.1Q8.7 -13.3 8.7 -12.95L8.35 -6.6L8.75 -2.85L8.45 -0.9L8.45 -0.45Q8.45 0.45 6.95 0.45L6.25 0.45L6.5 -1.95L6.25 -2.65L5.8 -5L6.1 -5.1Q5.5 -5.55 5.5 -6Q5.5 -6.65 6.05 -7.1L5.85 -7.3L6.1 -7.3Q5.5 -7.3 5.5 -7.85Q5.5 -8.25 6.1 -9.15Q5.75 -9.4 5.75 -10.25L5.9 -11.05L5.9 -11.55Q6.25 -12.2 6.25 -12.45Q6.25 -12.8 5.9 -13.6L6.25 -14.55L6.1 -15.45L6.4 -15.55Q6.25 -15.55 6.25 -16Q6.25 -16.45 6.6 -16.7L6.2 -16.6L5.8 -18.45L6.05 -19.4L5.8 -21.65L6.05 -21.7Q5.6 -21.95 5.4 -21.95L5.45 -22L5.35 -22L5.4 -21.95L5.05 -21.65L3.95 -21.75L3.05 -20.8Q2.2 -21.25 1.7 -21.35Q1.1 -22.15 1.1 -22.6Q1.1 -22.95 1.25 -23.3Q1.4 -23.65 1.85 -23.95L2.55 -24.45L4.15 -24.6L6.1 -24.7L6.25 -24.8L6.25 -24.7Q6.25 -26 7.9 -26L8.95 -26Q9.2 -24.9 9.4 -24.9L10.4 -25.35L11.75 -25.05L13.65 -25.35L16.35 -25.05L20 -24.95L21.8 -24.65L23.45 -24.65L23.45 -24.15Q23.45 -24.45 24.1 -24.45Q24.4 -24.45 24.8 -24.05L24.8 -23.5L25.1 -23.5L25.1 -23.85L24.8 -24.05L24.8 -24.1L27.6 -23.25L27.85 -22.75L27.95 -22.9Q28.7 -22.6 29.7 -22.55L30.05 -22.1L30.55 -22L31.9 -19.9Q32.4 -19.2 32.4 -18.6Q32.4 -17.5 31.55 -16.75Q30.75 -16 29.7 -14.8L28.9 -14.75L28.5 -14.75L28.05 -14.55L27.8 -13.95L26.25 -13.95L26 -13.75Q25.85 -13.6 25.25 -13.4L24.5 -13.2Q23.4 -13.2 22.25 -12.15L21.3 -12.65L20.6 -12.35L20.25 -12.5L19.6 -12.05L18.8 -12.35L18 -12.05L17.8 -12.35L17.1 -11.8L16.05 -11.9L15.95 -12L15.6 -12.05Q15.55 -11.95 15.75 -11.95L16.05 -11.9L17.2 -10.9L17.55 -10.3L19.5 -8.8L19.95 -7.95L20.2 -7.7Q20.45 -7.45 20.85 -6.45L22.05 -6.45L23.65 -4.8L24.4 -4.45L25.45 -3.8L26.45 -3.5L27.85 -2.95L28.5 -3.05L28.55 -2.85L28.8 -2.95L29.15 -2.6L30 -2.75L30.05 -2.25L30.25 -2.6L30.95 -2.4L32.65 -2.6L33.3 -2.4L35.65 -2.85L37.75 -3.3L37.75 -3.05" />
</g>
<g id="PathID_26" transform="matrix(1.00498, 0, 0, 1.00498, 368.55, 235.75)" opacity="0.996094">
</g>
<g id="PathID_27" transform="matrix(1.00498, 0, 0, 1.00498, 408.35, 235.75)" opacity="0.996094">
<path style="fill:#0790DA;fill-opacity:1" d="M29.65 -26.3Q29.5 -25.7 29.1 -25.2L28.5 -25.2L28 -25L27.15 -25.2L26.45 -25.15Q25.55 -25.15 25.45 -25.3L25.4 -25.5L24.75 -25.2L24.1 -25.4Q23.9 -25.4 23.2 -25.15Q22.55 -24.9 22.1 -24.9L21.35 -24.95L20.75 -25Q20.85 -25 20.7 -24.7Q19.8 -25 19.55 -25Q19.05 -25 18.2 -24.35L17.6 -24.65L17.25 -24.35L16.05 -24.75L15.35 -24.25L14.35 -24.25L13.15 -23.95L11.75 -23.45L11.35 -23.8L10.6 -23.05L9.85 -23.1L9.4 -22.35L9.65 -21.1Q9.15 -20.95 9.15 -20.15L9.2 -19.8L9.15 -18.85L9.3 -18.4L8.95 -18.1L9.15 -17.95Q8.8 -17.05 8.8 -16.55Q8.8 -15.95 9.55 -15.95L10.15 -16.05Q10.6 -16.15 11.05 -16.05L11.75 -15.95L12.6 -16.25L13.45 -16L13.9 -16.1L14.4 -16.05L15.2 -16.25L15.7 -16.1L15.75 -16.1Q15.9 -16.1 16.65 -16.45Q17.2 -16.2 17.7 -16.25L18.45 -16.4L19.2 -16.55L20.35 -16.35Q20.15 -16.35 20.3 -16.65L22.15 -16.4L22.65 -16.45L24.3 -16.35L24.85 -16.45Q24.95 -16.85 25.9 -16.85L27 -16.7L27.55 -16.8L28.15 -16.55L29.35 -16.7L29.1 -15.2Q27.85 -14.75 27.35 -14.75L26.7 -14.85L26.2 -15L24.9 -14.35L23.75 -14.45L23.05 -14.2L22.65 -14.3L21.85 -13.8L21.15 -13.95L19.2 -13.9L18.7 -13.65L18 -13.8L17.65 -13.5L17 -13.7L16.6 -13.35L15.55 -13.8L14.95 -13.35L13.85 -13.55L13.65 -13.6Q13.35 -13.6 12.7 -13.4L12.15 -13.2L10.1 -13L9.85 -13.25Q9.75 -13.05 8.7 -12.85L8.45 -12.3L8.9 -9.65L8.65 -9.35L8.95 -8.7L8.9 -7.85L9 -7.75Q9.15 -7.55 9.35 -6.2L9.8 -5.6L9.55 -5.15L9.75 -5.3L10.85 -3.7Q12.5 -2.4 13.75 -2.4L14.7 -2.25L15.4 -2.4L15.65 -2.75L16.35 -2.75L17 -2.75L17.95 -3.35Q18.5 -3.35 18.6 -3.45L19.3 -3.65Q19.55 -3.7 19.65 -3.8L20.35 -4.35Q20.6 -4.75 21.25 -5.25L21.9 -5.3L23.1 -6.4Q24.45 -6.8 24.85 -8.05L25.15 -7.85L25.25 -8.6L25.9 -8.65L26 -9.45L26.6 -9.45Q27.45 -9.45 27.8 -8.3L25.85 -5.7L25.25 -5.55Q24.45 -4.3 24 -4.05L22.8 -3.2L21.85 -2.35L21.5 -2.4L21.05 -1.8L18.75 -0.9L18.05 -0.05L17.3 -0.3L17.05 0.05L16.75 0L16.35 0.35L14.9 0.05L13.2 0.85L11.8 0.35L9.7 -0.75Q8.7 -1.25 7.95 -2.3Q7.2 -3.35 6.45 -5.5Q5.7 -7.7 5.7 -8.1L5.85 -8.7L5.5 -9.75L5.85 -10.25L5.4 -12.6L4.65 -13.55Q4.55 -13.7 4.55 -14.3Q4.55 -15.5 4.95 -15.7Q5.4 -15.9 5.4 -15.6L5.4 -15.95Q5.4 -16.7 5.95 -16.8L6 -17L5.85 -17.25L5.85 -18.7L5.7 -19.4L6.25 -21.05Q6.55 -22.05 6.65 -22.15L6.25 -22.6L5.4 -22.5L5.3 -22.5Q4.85 -22.5 4.45 -22.8Q4.1 -23.15 4.1 -23.65Q4.1 -24.3 4.95 -25.3Q5.15 -25.35 5.25 -25.55Q6.4 -26 6.6 -26Q7.05 -26 6.85 -25.75Q6.75 -26.1 7.35 -26.1Q7.6 -26.1 7.6 -26L7.45 -26.9L9.95 -26.75L10.1 -26.2Q10.55 -26.8 11.55 -26.8L11.85 -26.75L12.9 -27Q13.2 -27 14.5 -27.35L14.5 -27Q14.2 -27.35 15.05 -27.35L16.05 -27.3L16.2 -27.35L21.05 -27.8L21.85 -27.35L22.55 -27.95Q22.95 -27.55 22.8 -27.55L23.35 -27.7L23.75 -27.35L24.1 -27.7L25.15 -27.35L25.8 -27.45L26.15 -27.25L27.7 -27.35L28.05 -27.2Q29.5 -26.85 29.65 -26.3" />
</g>
<g id="PathID_28" transform="matrix(1.00498, 0, 0, 1.00498, 408.35, 235.75)" opacity="0.996094">
</g>
<g id="PathID_29" transform="matrix(1.00498, 0, 0, 1.00498, 441.05, 235.75)" opacity="0.996094">
<path style="fill:#0790DA;fill-opacity:1" d="M5.6 -20.25L5.4 -20.35L5.4 -20.3L5.25 -20.3L5.5 -21.3Q5.05 -21.3 4.8 -22.65L5.5 -22.65L5.25 -22.75L5.55 -23.95Q5.9 -24.25 5.9 -24.35Q5.9 -24.55 5.6 -25.4L5.9 -25.6L5.9 -26.15L6.55 -26.15L6.8 -26.8L7.5 -27.05Q9.25 -27.05 9.55 -25.35L9.25 -25.25L9.05 -25.15L9.35 -25.05L9.2 -23.5L9.05 -23.2L9.2 -22.55L9.2 -21.7L8.95 -21.6L9.2 -21.45L8.85 -20.4L8.95 -19.5L8.15 -18.2L8.35 -18.15L8.25 -17.3L8.35 -16.55L8.35 -16.1L7.8 -15.95L8.35 -14.45L8 -14.45L8.15 -14.4L7.8 -13.85L8.25 -13.05L8.05 -12.15L7.85 -12.15L7.75 -12.3Q7.75 -12.15 7.35 -12.15L7.85 -12.15Q7.9 -11.85 8.35 -11.3Q7.85 -10.8 7.8 -9.85L7.75 -9.45L8 -8.6L7.75 -7.9L7.8 -6.1L7.55 -5.1L8.05 -4.85Q7.95 -3.9 7.8 -3.7L7.7 -3.4Q7.7 -3.15 8.2 -2.05L7.85 -2L8.5 -1.65L8.25 -1.45L8.95 -1.3Q8.8 -0.05 8.05 0.75Q6.9 0.45 6.9 -0.25L6.45 -0.85L5.85 -1L6.05 -2.1L5.25 -3.1L5.6 -3.6L5.1 -4.25L5.25 -5.35L5.1 -5.7L4.85 -6.35L5.25 -7L5.05 -7.6L5.25 -7.85L4.6 -8.4L5.1 -9.4L5.05 -12.7L5.4 -15.25L5.25 -17.9L5.5 -18.3L5.25 -18.5L5.4 -19.4L5.4 -20.3L5.6 -20.25" />
</g>
<g id="PathID_30" transform="matrix(1.00498, 0, 0, 1.00498, 441.05, 235.75)" opacity="0.996094">
</g>
<g id="PathID_31" transform="matrix(1.00498, 0, 0, 1.00498, 456.4, 235.75)" opacity="0.996094">
<path style="fill:#0790DA;fill-opacity:1" d="M37.75 -3.05L37.85 -3.35L37.75 -3.3L37.7 -3.65L38.4 -3.65L39.1 -4.35Q39.8 -3.35 39.8 -3.15Q39.8 -2.7 39.2 -2.25L37.85 -1.25L37.4 -1.4L36.85 -0.45Q35.85 -0.4 35.05 0L33.55 -0.3L33.1 -0.1L32.65 0.45L31.7 0.05L32 0.05Q32 -0.05 31.55 -0.05L31.7 0.05L31.4 0L30.7 0.45L30.15 -0.05L29.85 0.05Q29.35 -0.25 29.15 -0.25L27.3 -0.25L26.9 -0.8L26.45 -0.7L25.7 -1.15L25.05 -0.9L24.6 -1.45L23.9 -1.45L23.4 -2.05L23.1 -2.05Q22.7 -2.05 22.4 -2.45Q22.15 -2.9 21.8 -3.1L20.25 -3.95Q18.85 -4.6 18.15 -6.05L17.65 -6.05L16.75 -7.2L15.3 -8.35L13.7 -10.2L13.25 -10.3L12.3 -11.35L11.8 -11.5Q11.55 -11.3 11.1 -11.3Q10.7 -11.3 11.15 -11.5L11.15 -11.95Q11.15 -11.4 10.55 -11.4L9.75 -11.4L9 -12.7Q9.3 -13.15 9.4 -14L10 -14.2L10 -14.5L10.9 -14.75Q11.25 -15 11.75 -15Q12.05 -15 12.25 -14.9Q12.5 -14.8 12.4 -14.8L12.85 -14.9Q13.25 -14 14.7 -14Q16.25 -14 16.75 -14.2L16.75 -14.45L20.85 -14.6Q22.2 -15.3 23.85 -15.3L24.05 -15.2L24.6 -15.4L24.9 -15.8L25.65 -15.75L26.4 -16.05L27 -16.05L27.15 -16L27.15 -16.65L27.75 -16.75Q29.65 -17.25 29.65 -18.05Q29.65 -18.4 29.25 -18.8L27.7 -20.25L27.4 -20.25Q26.25 -20.95 26.05 -20.95L25.45 -20.95L24.45 -21.4L23.75 -21.4L23.15 -21.9L22.05 -21.9L21.6 -22.1L18.8 -22.3L18.5 -22.6L18.25 -22.4L17.65 -22.6L17.15 -22.4L15.65 -22.6L14.1 -22.3L13.25 -22.6L12.4 -22.5L11.7 -22.6L11.05 -22.3L10.65 -22.5L9.8 -21.9L9.3 -22Q9.1 -21.55 8.75 -21.2L9.05 -20.65L8.9 -17.65L9.25 -15.1Q8.7 -13.3 8.7 -12.95L8.35 -6.6L8.75 -2.85L8.45 -0.9L8.45 -0.45Q8.45 0.45 6.95 0.45L6.25 0.45L6.5 -1.95L6.25 -2.65L5.8 -5L6.1 -5.1Q5.5 -5.55 5.5 -6Q5.5 -6.65 6.05 -7.1L5.85 -7.3L6.1 -7.3Q5.5 -7.3 5.5 -7.85Q5.5 -8.25 6.1 -9.15Q5.75 -9.4 5.75 -10.25L5.9 -11.05L5.9 -11.55Q6.25 -12.2 6.25 -12.45Q6.25 -12.8 5.9 -13.6L6.25 -14.55L6.1 -15.45L6.4 -15.55Q6.25 -15.55 6.25 -16Q6.25 -16.45 6.6 -16.7L6.2 -16.6L5.8 -18.45L6.05 -19.4L5.8 -21.65L6.05 -21.7Q5.6 -21.95 5.4 -21.95L5.45 -22L5.35 -22L5.4 -21.95L5.05 -21.65L3.95 -21.75L3.05 -20.8Q2.2 -21.25 1.7 -21.35Q1.1 -22.15 1.1 -22.6Q1.1 -22.95 1.25 -23.3Q1.4 -23.65 1.85 -23.95L2.55 -24.45L4.15 -24.6L6.1 -24.7L6.25 -24.8L6.25 -24.7Q6.25 -26 7.9 -26L8.95 -26Q9.2 -24.9 9.4 -24.9L10.4 -25.35L11.75 -25.05L13.65 -25.35L16.35 -25.05L20 -24.95L21.8 -24.65L23.45 -24.65L23.45 -24.15Q23.45 -24.45 24.1 -24.45Q24.4 -24.45 24.8 -24.05L24.8 -23.5L25.1 -23.5L25.1 -23.85L24.8 -24.05L24.8 -24.1L27.6 -23.25L27.85 -22.75L27.95 -22.9Q28.7 -22.6 29.7 -22.55L30.05 -22.1L30.55 -22L31.9 -19.9Q32.4 -19.2 32.4 -18.6Q32.4 -17.5 31.55 -16.75Q30.75 -16 29.7 -14.8L28.9 -14.75L28.5 -14.75L28.05 -14.55L27.8 -13.95L26.25 -13.95L26 -13.75Q25.85 -13.6 25.25 -13.4L24.5 -13.2Q23.4 -13.2 22.25 -12.15L21.3 -12.65L20.6 -12.35L20.25 -12.5L19.6 -12.05L18.8 -12.35L18 -12.05L17.8 -12.35L17.1 -11.8L16.05 -11.9L15.95 -12L15.6 -12.05Q15.55 -11.95 15.75 -11.95L16.05 -11.9L17.2 -10.9L17.55 -10.3L19.5 -8.8L19.95 -7.95L20.2 -7.7Q20.45 -7.45 20.85 -6.45L22.05 -6.45L23.65 -4.8L24.4 -4.45L25.45 -3.8L26.45 -3.5L27.85 -2.95L28.5 -3.05L28.55 -2.85L28.8 -2.95L29.15 -2.6L30 -2.75L30.05 -2.25L30.25 -2.6L30.95 -2.4L32.65 -2.6L33.3 -2.4L35.65 -2.85L37.75 -3.3L37.75 -3.05" />
</g>
<g id="PathID_32" transform="matrix(1.00498, 0, 0, 1.00498, 456.4, 235.75)" opacity="0.996094">
</g>
<g id="PathID_33" transform="matrix(1.00498, 0, 0, 1.00498, 496.2, 235.75)" opacity="0.996094">
<path style="fill:#0790DA;fill-opacity:1" d="M15.75 -21.6L15.7 -21.85L15.65 -21.8L15.5 -22.1Q16.25 -22.2 16.35 -23.1L16.65 -22.9L16.65 -23.9L17 -23.9L17 -24.35L17.6 -24.9Q18.05 -25.3 18.2 -25.95L18.7 -26.4L18.35 -27.15Q19.3 -28.5 20.15 -28.5L19.95 -28.5L20.55 -28.95L21.35 -28.25L21.6 -28.05L22.7 -27.5L22.8 -26.15Q23.1 -25.9 23.35 -25.3L23.85 -25.1L23.95 -23.75L24.3 -22.35L25 -21.2L25.45 -19.45L25.55 -18.5L26.25 -17.45L26.1 -17.05L26.6 -16.55L26.6 -15.65L26.75 -15Q26.75 -14.6 26.5 -14.35Q27.1 -13.15 27.7 -13.15L28.65 -13.35L29.9 -13.35Q30.45 -13.2 30.75 -13.2Q31.2 -13.2 31.55 -13.45Q31.9 -13.75 32.2 -13.75Q32.5 -13.75 33.25 -13.35L34.75 -13.4Q34.75 -12.2 33.9 -11.85L33.15 -12.15L32.3 -11.4L31.25 -11.55Q30.65 -11.15 29.7 -11.15Q29.4 -11.15 29.15 -10.85Q28.2 -11.15 27.8 -11.15L28.05 -11L27.9 -10.25L28 -8.75L28.65 -7.8L28.8 -6.9L29.9 -5.2L29.75 -4.55L30.4 -3.95L31.55 -2Q32.5 -0.9 32.6 -0.55L33.5 -0.1L33.85 0.7L34.3 1.3L33.1 2.3L32.1 1.65L31.6 1.65L30.95 1.15L30.35 1.15L29.8 0.15L29.3 -0.1Q28.7 -1.35 27.9 -2.1L27.9 -2.6L27.45 -3L27.4 -3.8L26.7 -4.55L25.6 -7.1L25.25 -7.6L25.05 -9Q25.05 -9.1 24.4 -10.05L24.4 -10.7L24.5 -10.75L24.4 -10.75L24.4 -10.7L23.8 -10.3L22.75 -10.5L21.9 -10.05L21.65 -10.3L20.95 -10L20.7 -10.3Q21 -10.3 20.6 -10.15Q20.25 -10.05 19.65 -10.05L19 -10.05L18.4 -10.05L17.45 -9.5L16.4 -9.7L15.75 -9.65L15.75 -9.35L14.75 -9.6L14.1 -9.25L13.5 -9.6L13 -9.6L11.95 -9.25L11.35 -10L11.15 -9.7L10.4 -10Q9.9 -9.7 8.4 -7.45L7.6 -7.25Q5.55 -4.15 5.25 -4.1L5.05 -4L3.55 -2.05L3.3 -2.05L2.2 -0.2L0.55 0.75L-1.05 0.3L-0.85 -0.6L-0.85 -1.35L-0.45 -1.7L-0.65 -2.35L0.6 -2.55L1.15 -2.85Q1.75 -3.15 1.95 -4.1Q3 -4.35 3.15 -5.15Q4.35 -5.85 4.8 -7.45L5.55 -7.75L7 -10L7 -10.3Q6.75 -10.55 6.5 -11.45L7.45 -12.4L7.45 -13.05L8.95 -12.9L9.9 -13.35L9.95 -13.15L10.05 -13.2Q9.85 -13.15 9.85 -13.75Q9.85 -14.1 10.9 -14.55Q10.8 -14.8 11.3 -15.3L11.15 -15.95L11.85 -16.1L12 -16.75L12.55 -16.8L12.55 -17.6Q13.75 -18.65 13.75 -19.3L13.75 -19.85L14.45 -19.95L14.6 -20.6L15 -20.7L15.65 -21.8L15.75 -21.6M24.15 -14.3Q23.95 -14.6 23.35 -15L23.65 -15.7L23 -15.95L22.8 -18.05L22.15 -19L22.05 -19.8L21.7 -20.5L21.7 -20.4L21.6 -20.4L21.45 -21.95L21.3 -22.25L20.95 -22.8L20.65 -23L20.05 -23.45L19.85 -23.3L19.6 -22.85L18.35 -21.1L18.1 -20.55Q17.95 -20.25 16.95 -19.25L16.7 -18.35L15.65 -17.85Q15.3 -15.85 14.15 -15.55L13.7 -14.05L12.75 -13.7L12.75 -13.45L12.6 -13.2Q13.2 -13.05 13.5 -12.85L14 -12.9L15.05 -12.65L15.4 -12.55L15.85 -12.6Q15.95 -12.7 16.3 -12.7L16.7 -12.6L17.2 -12.5L17.8 -12.65L19.75 -12.8L21.45 -13.05Q23 -12.8 23.4 -12.8L24.05 -12.85L23.65 -13.75L24.15 -14.3" />
</g>
<g id="PathID_34" transform="matrix(1.00498, 0, 0, 1.00498, 496.2, 235.75)" opacity="0.996094">
</g>
<g id="PathID_35" transform="matrix(-1.17535, 0, 0, 1.17535, 184.15, 93.6)" opacity="0.996094">
<path style="fill:#0790DA;fill-opacity:1" d="M81.95 9L80.15 12.3L82.75 7.75L81.95 9M114.65 18.05L125.75 11.3L108.35 42.55L73.25 42.55L84.65 35.95L75.45 20.6L55.15 56.45L25.1 38.7L43.25 6.25Q47.2 0 53.85 0L96.6 0Q100.3 0 103.4 1.9Q106.6 3.7 108.5 7.1L114.65 18.05M148.1 77.1Q150 80.45 150 84.35Q150.15 88.05 148.25 91.4L147.2 93L148.5 91.1L127.1 129.15Q125.45 132.1 122.55 133.7Q119.7 135.3 116.5 135.3L99 135.3L99.15 148.55L81.6 117.5L99.15 86.3L99 99.65L118.85 99.65L102.6 67.3L124.35 54.35L124.4 54.5L132.6 49.5L148.1 77.1M11.3 63.85L0 57.1L34.95 57.1L52.5 88.35L41.3 81.6L30.95 100.15L66.7 100.15L66.7 135.75L35.45 135.75Q27.2 135.75 24.15 130.35L12.35 111.3Q2.85 95.45 1.75 90.5Q-0.65 85 2.55 79.35L11.3 63.85" />
</g>
<g id="PathID_36" transform="matrix(-1.17535, 0, 0, 1.17535, 184.15, 93.6)" opacity="0.996094">
</g>
<g id="PathID_37" transform="matrix(-0.296979, 0, 0, 0.296979, 539, 129.35)" opacity="0.996094">
<path style="fill:#4A7DBC;fill-opacity:1" d="M172.9 58.9Q166.3 43.5 154.2 31.4Q142.25 19.3 126.65 12.65Q110.45 5.85 92.9 5.85Q75.15 5.85 59.15 12.65Q43.5 19.3 31.4 31.4Q19.5 43.5 12.85 58.9Q6.05 75.1 6.05 92.9Q6.05 109.65 12.1 124.9Q17.95 139.7 28.85 151.65Q39.8 163.55 54.05 170.55Q68.9 178 85.3 179.35L75.7 169.8L80 165.5L97 182.65L80 199.65L75.7 195.55L86.05 185.4Q68.1 184.05 52.3 176.2Q36.7 168.6 24.75 155.9Q13.05 143.45 6.6 127.45Q0 110.85 0 92.9Q0 73.95 7.2 56.75Q14.45 40 27.1 27.1Q40 14.25 56.8 7.2Q73.95 0 92.9 0Q111.65 0 129 7.2Q145.6 14.25 158.45 27.1Q171.35 40 178.4 56.75Q185.6 73.95 185.6 92.9L179.75 92.9Q179.75 75.1 172.9 58.9" />
</g>
<g id="PathID_38" transform="matrix(-0.296979, 0, 0, 0.296979, 539, 129.35)" opacity="0.996094">
</g>
</svg>
