<?xml version="1.0" encoding="utf-8"?>
<svg version="1.1" id="Layer_1"
xmlns="http://www.w3.org/2000/svg"
xmlns:xlink="http://www.w3.org/1999/xlink"
width="550px" height="400px"
xml:space="preserve">
<g id="PathID_7" transform="matrix(3.04895, -0.000372734, 0.00032107, 2.62634, 56.1, 14.55)" opacity="1">
<path style="fill:#4A7DBC;fill-opacity:1" d="M93.05 29.75Q84.75 34.6 75.6 32.6Q69.15 31.15 55 23.85Q52.85 29.3 47 28.45Q43.85 28 37.45 24.75Q35.85 26.85 31.85 30.3Q28.3 33.45 27 35.6Q30.85 39.45 28 38.75L30.15 40.45Q41.15 44.9 38.3 38.85Q45.75 41.9 47.45 41.9Q49.85 41.9 46.45 37.6L49.15 40.3Q51.6 52.75 50.15 71.6Q49.15 84.3 45.6 117.2Q47.75 115.45 48.45 116.75Q49 117.9 48.75 121.9Q54.85 114.9 55.15 122.6Q57.85 117.75 58.75 117.45Q59.75 117.05 58.85 122.05Q62 116.05 62.6 115.45Q62.75 115.35 62.85 115.6Q63.6 111.75 63.75 108.45Q63.85 103.05 61.3 110.05L65 91.6Q65.6 87.05 63.75 88.6Q69.75 82.9 71.6 82.45Q73.75 82.05 73.15 88.2Q74.9 82.05 76.15 83.9Q77.45 85.6 79.9 96.3Q80.9 92.3 83.6 96.9Q85.3 99.75 90.05 111.2Q90.45 107.45 95.6 111.2L106.9 119.2Q106.75 116.05 109.6 116.2Q110.75 116.2 116.2 117.75Q117.75 115.45 120.05 114.05L123.05 112.6Q122.2 110.75 120.9 109.45Q119.75 108.2 120.3 109.45Q114.6 105.45 117.3 109.45Q108.75 107.3 99.45 96.6Q90.45 86.6 91.75 82.45Q93.9 76.6 102.6 69.3Q113.3 60.3 116.05 56.6L104.45 45.6Q97.6 38.45 93.05 29.75M90.6 63.15Q87.3 67.9 87.45 70.75Q80.9 72.15 76.3 73.9Q72.3 75.3 65.15 78.75Q68.9 75.3 68.15 75.3Q67.3 75.3 63 78.6Q67.75 68.3 68.15 59.9Q68.45 52.45 65.6 40.6Q68.6 46.75 69.3 46Q70 45.15 69.15 37.15Q80.6 44.9 87.45 48Q93.75 50.75 99.6 51.45Q92.75 60.15 90.6 63.15M144.9 72.6Q144.9 102.45 123.6 123.9Q102.3 145.05 72.45 145.05Q42.45 145.05 21.3 123.9Q0 102.45 0 72.6Q0 42.6 21.3 21.45Q42.45 0 72.45 0Q102.3 0 123.6 21.45Q144.9 42.6 144.9 72.6" />
</g>
<g id="PathID_8" transform="matrix(3.04895, -0.000372734, 0.00032107, 2.62634, 56.1, 14.55)" opacity="1">
</g>
</svg>
